<?xml version="1.0" encoding="UTF-8" standalone="no"?>
<svg
   viewBox="0 0 749.78 116.1"
   version="1.1"
   id="svg19"
   xmlns="http://www.w3.org/2000/svg"
   xmlns:svg="http://www.w3.org/2000/svg">
  <defs
     id="defs2">
    <style
       id="style1">.f6e72cb5-d975-47bf-be23-a3cc8efd7b69{fill-rule:evenodd;fill:url(#ec58528b-0c56-44ed-855d-3c1162f7d6e4);}.e9a95b2d-d58c-487a-99f7-9e11781ed4a8{fill:#3f3f3f;}.a98829ac-27c8-4641-97a8-ec91c92d3dec{fill:#ed1e79;}</style>
    <linearGradient
       id="ec58528b-0c56-44ed-855d-3c1162f7d6e4"
       y1="58.05"
       x2="139.29"
       y2="58.05"
       gradientUnits="userSpaceOnUse">
      <stop
         offset="0"
         stop-color="#ed1e79"
         id="stop1" />
      <stop
         offset="1"
         stop-color="#1e79ed"
         id="stop2" />
    </linearGradient>
  </defs>
  <path
     class="f6e72cb5-d975-47bf-be23-a3cc8efd7b69"
     d="M 105.92,107.26 V 89.2 l 8.4,-5.44 a 12.69,12.69 0 0 0 5.78,-10.63 v -12 l 15.59,-9.7 a 8.31,8.31 0 0 0 2.59,-2.43 5.81,5.81 0 0 0 0,-6.52 8.08,8.08 0 0 0 -2.52,-2.45 L 76.81,2 A 14.05,14.05 0 0 0 62.56,2 l -59,38.09 A 8.08,8.08 0 0 0 1,42.5 5.81,5.81 0 0 0 1,49 8.42,8.42 0 0 0 3.6,51.47 l 15.59,9.7 v 12 a 13.95,13.95 0 0 0 5.73,10.54 c 0,0 0,0 0,0 l 38.7,25 c 0,0 0,0 0,0 a 11.81,11.81 0 0 0 11.87,0 c 0,0 0,0 0,0 l 25.8,-16.69 v 15.16 l -5,5 a 2.26,2.26 0 0 0 0,3.17 2.25,2.25 0 0 0 1.6,0.65 2.2,2.2 0 0 0 1.59,-0.65 l 4.07,-4.07 4.09,4.07 a 2.22,2.22 0 0 0 1.6,0.65 2.25,2.25 0 0 0 1.59,-0.65 2.26,2.26 0 0 0 0,-3.17 z m 0,-37.28 9.68,-6 v 9.17 A 8.16,8.16 0 0 1 111.87,80 l -6,3.85 z m -4.5,2.8 -24.56,15.27 c 0,0 0,0 -0.07,0 A 13.43,13.43 0 0 1 69.65,89.89 13.45,13.45 0 0 1 62.5,88.1 c 0,0 0,0 -0.07,0 L 23.69,64 v 9.13 a 7.86,7.86 0 0 0 1.12,3.87 8,8 0 0 0 2.63,3 l 38.63,25 a 7.41,7.41 0 0 0 7.15,0 l 28.2,-18.27 z m 2.48,-6.84 29.43,-18.32 c 0,0 0,0 0,0 a 3.89,3.89 0 0 0 1.17,-1.08 1.75,1.75 0 0 0 0.25,-0.78 1.78,1.78 0 0 0 -0.25,-0.79 3.64,3.64 0 0 0 -1.13,-1.08 c 0,0 0,0 0,0 l -59,-38.07 a 9.64,9.64 0 0 0 -9.53,0 l -59,38.07 c 0,0 0,0 0,0 A 3.64,3.64 0 0 0 4.74,45 1.78,1.78 0 0 0 4.49,45.79 1.75,1.75 0 0 0 4.74,46.57 3.89,3.89 0 0 0 5.91,47.6 c 0,0 0,0 0,0 l 58.88,36.63 a 10.27,10.27 0 0 0 9.71,0 L 99.71,68.55 68.41,47.67 a 2.24,2.24 0 0 1 -0.63,-3.13 2.26,2.26 0 0 1 3.1,-0.62 z"
     id="path2"
     style="fill:url(#ec58528b-0c56-44ed-855d-3c1162f7d6e4)" />
  <path
     class="e9a95b2d-d58c-487a-99f7-9e11781ed4a8"
     d="m 192.88,73.54 q -4,5.74 -12.64,5.75 -6.33,0 -9.63,-3.68 -3.3,-3.68 -3.37,-10.89 V 38.93 h 4.36 v 25.24 q 0,11.31 9.16,11.31 9.51,0 12.05,-7.87 V 38.93 h 4.39 V 78.56 H 193 Z"
     id="path3"
     style="fill:#ffffff;fill-opacity:1" />
  <path
     class="e9a95b2d-d58c-487a-99f7-9e11781ed4a8"
     d="m 212.76,38.93 0.15,6.78 a 15.78,15.78 0 0 1 5.57,-5.59 14.46,14.46 0 0 1 7.36,-1.92 q 6.38,0 9.48,3.59 3.1,3.59 3.15,10.77 v 26 h -4.36 v -26 q 0,-5.31 -2.25,-7.91 -2.25,-2.6 -7.08,-2.65 a 11.13,11.13 0 0 0 -7.2,2.54 14.91,14.91 0 0 0 -4.58,6.88 v 27.14 h -4.36 V 38.93 Z"
     id="path4"
     style="fill:#ffffff;fill-opacity:1" />
  <path
     class="e9a95b2d-d58c-487a-99f7-9e11781ed4a8"
     d="m 249.53,27.49 a 2.91,2.91 0 0 1 0.81,-2.09 2.86,2.86 0 0 1 2.19,-0.86 2.94,2.94 0 0 1 2.22,0.86 2.88,2.88 0 0 1 0.82,2.09 2.82,2.82 0 0 1 -0.82,2.07 3,3 0 0 1 -2.22,0.84 2.89,2.89 0 0 1 -2.19,-0.84 2.85,2.85 0 0 1 -0.81,-2.07 z m 5.16,51.07 H 250.3 V 38.93 h 4.39 z"
     id="path5"
     style="fill:#ffffff;fill-opacity:1" />
  <path
     class="e9a95b2d-d58c-487a-99f7-9e11781ed4a8"
     d="M 278.94,72.52 291,38.93 h 4.5 l -14.8,39.63 h -3.56 L 262.28,38.93 h 4.5 z"
     id="path6"
     style="fill:#ffffff;fill-opacity:1" />
  <path
     class="e9a95b2d-d58c-487a-99f7-9e11781ed4a8"
     d="m 317.54,79.29 a 17.21,17.21 0 0 1 -9.14,-2.49 16.93,16.93 0 0 1 -6.35,-6.94 21.56,21.56 0 0 1 -2.27,-10 V 58.31 A 23.26,23.26 0 0 1 302,48 a 17.61,17.61 0 0 1 6.17,-7.2 15.19,15.19 0 0 1 8.57,-2.62 q 7.22,0 11.44,4.93 c 2.83,3.28 4.23,7.77 4.23,13.46 V 59 h -28.28 v 0.84 a 16.61,16.61 0 0 0 3.87,11.27 12.27,12.27 0 0 0 9.72,4.48 14.39,14.39 0 0 0 6.21,-1.28 13.8,13.8 0 0 0 4.89,-4.1 l 2.74,2.09 q -4.83,6.99 -14.02,6.99 z m -0.81,-37.35 a 11,11 0 0 0 -8.33,3.62 16.77,16.77 0 0 0 -4.12,9.74 h 23.77 v -0.47 a 14.58,14.58 0 0 0 -3.26,-9.3 10.08,10.08 0 0 0 -8.06,-3.59 z"
     id="path7"
     style="fill:#ffffff;fill-opacity:1" />
  <path
     class="e9a95b2d-d58c-487a-99f7-9e11781ed4a8"
     d="m 359.25,42.67 a 16.5,16.5 0 0 0 -3,-0.26 10.74,10.74 0 0 0 -6.94,2.29 12.51,12.51 0 0 0 -4,6.65 v 27.21 h -4.36 V 38.93 h 4.28 l 0.08,6.3 q 3.46,-7 11.16,-7 a 7.17,7.17 0 0 1 2.9,0.48 z"
     id="path8"
     style="fill:#ffffff;fill-opacity:1" />
  <path
     class="e9a95b2d-d58c-487a-99f7-9e11781ed4a8"
     d="m 389.9,68.49 a 6.23,6.23 0 0 0 -2.62,-5.24 20,20 0 0 0 -7.89,-3.09 35.69,35.69 0 0 1 -8.19,-2.57 10.88,10.88 0 0 1 -4.32,-3.53 8.83,8.83 0 0 1 -1.41,-5.06 9.43,9.43 0 0 1 3.92,-7.74 15.83,15.83 0 0 1 10,-3.06 q 6.61,0 10.64,3.28 a 10.51,10.51 0 0 1 4,8.55 h -4.39 a 7.11,7.11 0 0 0 -2.91,-5.79 13.16,13.16 0 0 0 -14.28,-0.38 5.92,5.92 0 0 0 -2.62,5 5.36,5.36 0 0 0 2.18,4.59 q 2.18,1.63 7.94,3 a 37.53,37.53 0 0 1 8.65,2.89 11.28,11.28 0 0 1 4.3,3.66 10.18,10.18 0 0 1 -2.65,13.26 q -4,3 -10.57,3 -6.92,0 -11.22,-3.35 a 10.3,10.3 0 0 1 -4.3,-8.48 h 4.39 a 7.61,7.61 0 0 0 3.24,6 13.23,13.23 0 0 0 7.89,2.14 12.48,12.48 0 0 0 7.4,-2 6,6 0 0 0 2.82,-5.08 z"
     id="path9"
     style="fill:#ffffff;fill-opacity:1" />
  <path
     class="e9a95b2d-d58c-487a-99f7-9e11781ed4a8"
     d="m 403.89,27.49 a 3,3 0 0 1 0.8,-2.09 2.88,2.88 0 0 1 2.2,-0.86 2.94,2.94 0 0 1 2.22,0.86 2.88,2.88 0 0 1 0.82,2.09 2.82,2.82 0 0 1 -0.82,2.07 3,3 0 0 1 -2.22,0.84 2.81,2.81 0 0 1 -3,-2.91 z m 5.16,51.07 h -4.39 V 38.93 h 4.39 z"
     id="path10"
     style="fill:#ffffff;fill-opacity:1" />
  <path
     class="e9a95b2d-d58c-487a-99f7-9e11781ed4a8"
     d="m 419.2,58.38 q 0,-9.23 4.12,-14.7 A 13.24,13.24 0 0 1 434.5,38.2 q 8,0 12.24,6.34 V 22.31 h 4.35 V 78.56 H 447 l -0.18,-5.28 q -4.21,6 -12.38,6 a 13.23,13.23 0 0 1 -11,-5.51 q -4.2,-5.52 -4.19,-14.89 z m 4.43,0.77 q 0,7.58 3,12 a 9.83,9.83 0 0 0 8.57,4.37 q 8.08,0 11.5,-7.14 V 49.74 Q 443.34,42 435.31,42 a 10,10 0 0 0 -8.61,4.34 q -3.07,4.35 -3.07,12.81 z"
     id="path11"
     style="fill:#ffffff;fill-opacity:1" />
  <path
     class="e9a95b2d-d58c-487a-99f7-9e11781ed4a8"
     d="M 487.64,78.56 A 20.68,20.68 0 0 1 486.8,73 a 15.35,15.35 0 0 1 -5.88,4.63 17.94,17.94 0 0 1 -7.56,1.63 13.27,13.27 0 0 1 -9.25,-3.19 10.39,10.39 0 0 1 -3.53,-8 10.61,10.61 0 0 1 4.81,-9.16 q 4.82,-3.36 13.43,-3.37 h 7.94 V 51 a 8.66,8.66 0 0 0 -2.62,-6.68 c -1.74,-1.63 -4.29,-2.44 -7.63,-2.44 a 12,12 0 0 0 -7.58,2.34 7,7 0 0 0 -3,5.64 h -4.4 q 0,-4.73 4.4,-8.19 a 16.9,16.9 0 0 1 10.8,-3.46 q 6.63,0 10.45,3.32 a 11.88,11.88 0 0 1 3.94,9.24 v 18.74 c 0,3.84 0.4,6.7 1.21,8.61 v 0.44 z m -13.77,-3.15 a 14.7,14.7 0 0 0 7.86,-2.13 12.47,12.47 0 0 0 5,-5.67 v -8.72 h -7.83 q -6.56,0.07 -10.26,2.4 a 7.21,7.21 0 0 0 -3.7,6.39 7.1,7.1 0 0 0 2.47,5.53 9.31,9.31 0 0 0 6.46,2.2 z"
     id="path12"
     style="fill:#ffffff;fill-opacity:1" />
  <path
     class="e9a95b2d-d58c-487a-99f7-9e11781ed4a8"
     d="m 501,58.38 q 0,-9.23 4.13,-14.7 a 13.24,13.24 0 0 1 11.18,-5.48 q 8,0 12.23,6.34 V 22.31 h 4.36 v 56.25 h -4.1 l -0.18,-5.28 q -4.21,6 -12.38,6 a 13.21,13.21 0 0 1 -11,-5.51 Q 501,68.26 501,58.89 Z m 4.44,0.77 q 0,7.58 3,12 a 9.83,9.83 0 0 0 8.57,4.37 q 8.08,0 11.49,-7.14 V 49.74 Q 525.17,42 517.16,42 a 10,10 0 0 0 -8.61,4.34 q -3.07,4.35 -3.07,12.81 z"
     id="path13"
     style="fill:#ffffff;fill-opacity:1" />
  <path
     class="e9a95b2d-d58c-487a-99f7-9e11781ed4a8"
     d="m 559.82,79.29 a 17.23,17.23 0 0 1 -9.14,-2.49 16.93,16.93 0 0 1 -6.35,-6.94 21.69,21.69 0 0 1 -2.27,-10 V 58.31 A 23.27,23.27 0 0 1 544.28,48 17.54,17.54 0 0 1 550.45,40.8 15.17,15.17 0 0 1 559,38.2 q 7.22,0 11.44,4.93 4.22,4.93 4.23,13.46 V 59 h -28.25 v 0.84 a 16.65,16.65 0 0 0 3.86,11.23 12.3,12.3 0 0 0 9.72,4.52 14.32,14.32 0 0 0 6.21,-1.28 13.63,13.63 0 0 0 4.89,-4.1 l 2.75,2.09 Q 569,79.29 559.82,79.29 Z M 559,41.94 a 11,11 0 0 0 -8.34,3.62 16.77,16.77 0 0 0 -4.11,9.74 h 23.76 v -0.47 a 14.52,14.52 0 0 0 -3.26,-9.3 10.06,10.06 0 0 0 -8.05,-3.59 z"
     id="path14"
     style="fill:#ffffff;fill-opacity:1" />
  <path
     class="e9a95b2d-d58c-487a-99f7-9e11781ed4a8"
     d="m 607,68.49 a 6.25,6.25 0 0 0 -2.61,-5.24 20.15,20.15 0 0 0 -7.9,-3.09 35.58,35.58 0 0 1 -8.18,-2.57 10.88,10.88 0 0 1 -4.32,-3.53 8.83,8.83 0 0 1 -1.46,-5.06 9.41,9.41 0 0 1 3.92,-7.74 15.8,15.8 0 0 1 10,-3.06 q 6.63,0 10.64,3.28 a 10.51,10.51 0 0 1 4,8.55 h -4.4 a 7.11,7.11 0 0 0 -2.91,-5.79 13.16,13.16 0 0 0 -14.28,-0.38 5.92,5.92 0 0 0 -2.62,5 5.39,5.39 0 0 0 2.18,4.59 q 2.17,1.63 7.95,3 a 37.59,37.59 0 0 1 8.64,2.89 11.24,11.24 0 0 1 4.35,3.66 10.18,10.18 0 0 1 -2.66,13.26 q -4,3 -10.56,3 -6.93,0 -11.23,-3.35 a 10.3,10.3 0 0 1 -4.3,-8.48 h 4.39 a 7.61,7.61 0 0 0 3.24,6 13.24,13.24 0 0 0 7.9,2.14 12.45,12.45 0 0 0 7.39,-2 6,6 0 0 0 2.83,-5.08 z"
     id="path15"
     style="fill:#ffffff;fill-opacity:1" />
  <path
     class="e9a95b2d-d58c-487a-99f7-9e11781ed4a8"
     d="m 620.8,75.92 a 3.11,3.11 0 0 1 0.82,-2.18 3,3 0 0 1 2.29,-0.9 3,3 0 0 1 2.31,0.9 3.09,3.09 0 0 1 0.84,2.18 2.82,2.82 0 0 1 -0.84,2.11 3.18,3.18 0 0 1 -2.31,0.82 3.09,3.09 0 0 1 -2.29,-0.82 2.85,2.85 0 0 1 -0.82,-2.11 z"
     id="path16"
     style="fill:#ffffff;fill-opacity:1" />
  <path
     class="a98829ac-27c8-4641-97a8-ec91c92d3dec"
     d="m 659.72,78.56 a 16.28,16.28 0 0 1 -0.11,-2.79 l 0.33,-2.74 a 20.41,20.41 0 0 1 -6.28,4.65 16.8,16.8 0 0 1 -7.66,1.61 11.32,11.32 0 0 1 -8.15,-3.17 9.46,9.46 0 0 1 -2.8,-7.78 11.63,11.63 0 0 1 2.69,-6.79 15.44,15.44 0 0 1 6.83,-4.47 29.2,29.2 0 0 1 9.92,-1.59 h 8.1 l 0.66,-4.54 a 8.06,8.06 0 0 0 -1.76,-6.52 8.72,8.72 0 0 0 -6.48,-2.6 12.51,12.51 0 0 0 -7.5,2.17 9.36,9.36 0 0 0 -4,5.84 h -4.28 a 12.16,12.16 0 0 1 5.34,-8.48 18,18 0 0 1 10.92,-3.21 q 6.1,0.15 9.43,3.7 3.33,3.55 2.69,9.23 L 664.3,71 664,74.2 a 15.19,15.19 0 0 0 0.29,3.92 l -0.07,0.44 z m -13,-3.08 a 14.28,14.28 0 0 0 7.71,-1.93 17.08,17.08 0 0 0 6.1,-5.89 l 1.5,-8.77 h -7 q -6.66,0 -10.87,2.36 a 8.44,8.44 0 0 0 -4.61,6.75 6.33,6.33 0 0 0 1.7,5.33 7.57,7.57 0 0 0 5.51,2.15 z"
     id="path17" />
  <path
     class="a98829ac-27c8-4641-97a8-ec91c92d3dec"
     d="m 691,79.33 a 16.12,16.12 0 0 1 -6.43,-1.45 11.15,11.15 0 0 1 -4.89,-4.3 l -3.66,20.21 h -4.32 l 9.52,-54.86 h 4 l -1,5.61 q 5.16,-6.55 12.93,-6.34 a 10.79,10.79 0 0 1 8.68,4.14 q 3.11,4 3.22,11.32 a 34.26,34.26 0 0 1 -0.22,4.46 l -0.15,1 a 32.61,32.61 0 0 1 -3.44,11.06 18.21,18.21 0 0 1 -6.15,6.94 14.26,14.26 0 0 1 -8.09,2.21 z m 13.47,-21.19 0.22,-3.47 c 0.07,-3.9 -0.63,-7 -2.12,-9.18 A 7.81,7.81 0 0 0 696,42 a 12.48,12.48 0 0 0 -7,1.88 16,16 0 0 0 -5.29,5.69 l -3.26,19.06 a 10,10 0 0 0 3.72,5.12 11.17,11.17 0 0 0 6.1,1.87 11,11 0 0 0 9,-4 q 3.68,-4.16 5,-11.58 z"
     id="path18" />
  <path
     class="a98829ac-27c8-4641-97a8-ec91c92d3dec"
     d="m 731.72,79.33 a 16.19,16.19 0 0 1 -6.43,-1.45 11.18,11.18 0 0 1 -4.88,-4.3 l -3.67,20.21 h -4.32 l 9.52,-54.86 h 4 l -1,5.61 q 5.16,-6.55 12.92,-6.34 a 10.78,10.78 0 0 1 8.68,4.14 q 3.12,4 3.23,11.32 a 34.26,34.26 0 0 1 -0.22,4.46 l -0.15,1 a 32.83,32.83 0 0 1 -3.4,11.09 18.32,18.32 0 0 1 -6.16,6.94 14.21,14.21 0 0 1 -8.12,2.18 z m 13.48,-21.19 0.22,-3.47 c 0.07,-3.9 -0.64,-7 -2.13,-9.18 a 7.81,7.81 0 0 0 -6.62,-3.49 12.46,12.46 0 0 0 -7,1.88 15.94,15.94 0 0 0 -5.29,5.69 l -3.26,19.06 a 10,10 0 0 0 3.72,5.12 11.63,11.63 0 0 0 15.08,-2.1 q 3.69,-4.16 5,-11.58 z"
     id="path19" />
</svg>
