<svg xmlns="http://www.w3.org/2000/svg" xmlns:xlink="http://www.w3.org/1999/xlink" viewBox="0 0 749.78 116.1"><defs><style>.f6e72cb5-d975-47bf-be23-a3cc8efd7b69{fill-rule:evenodd;fill:url(#ec58528b-0c56-44ed-855d-3c1162f7d6e4);}.e9a95b2d-d58c-487a-99f7-9e11781ed4a8{fill:#3f3f3f;}.a98829ac-27c8-4641-97a8-ec91c92d3dec{fill:#ed1e79;}</style><linearGradient id="ec58528b-0c56-44ed-855d-3c1162f7d6e4" y1="58.05" x2="139.29" y2="58.05" gradientUnits="userSpaceOnUse"><stop offset="0" stop-color="#ed1e79"/><stop offset="1" stop-color="#1e79ed"/></linearGradient></defs><g id="aef6fe4f-37a3-4acd-9621-461174a9209c" data-name="Capa 2"><g id="b5e2fc97-9370-4028-a13d-b525560f8f40" data-name="Capa 1"><path class="f6e72cb5-d975-47bf-be23-a3cc8efd7b69" d="M105.92,107.26V89.2l8.4-5.44a12.69,12.69,0,0,0,5.78-10.63v-12l15.59-9.7A8.31,8.31,0,0,0,138.28,49a5.81,5.81,0,0,0,0-6.52,8.08,8.08,0,0,0-2.52-2.45L76.81,2a.07.07,0,0,0,0,0,14.05,14.05,0,0,0-14.25,0,.07.07,0,0,0,0,0l-59,38.09A8.08,8.08,0,0,0,1,42.5,5.81,5.81,0,0,0,1,49,8.42,8.42,0,0,0,3.6,51.47l15.59,9.7v12a13.95,13.95,0,0,0,5.73,10.54s0,0,0,0l38.7,25s0,0,0,0a11.81,11.81,0,0,0,11.87,0s0,0,0,0l25.8-16.69v15.16l-5,5a2.26,2.26,0,0,0,0,3.17,2.25,2.25,0,0,0,1.6.65,2.2,2.2,0,0,0,1.59-.65l4.07-4.07,4.09,4.07a2.22,2.22,0,0,0,1.6.65,2.25,2.25,0,0,0,1.59-.65,2.26,2.26,0,0,0,0-3.17Zm0-37.28,9.68-6v9.17A8.16,8.16,0,0,1,111.87,80l-6,3.85Zm-4.5,2.8L76.86,88.05s0,0-.07,0a13.43,13.43,0,0,1-7.14,1.84A13.45,13.45,0,0,1,62.5,88.1s0,0-.07,0L23.69,64v9.13A7.86,7.86,0,0,0,24.81,77a8,8,0,0,0,2.63,3l38.63,25a7.41,7.41,0,0,0,7.15,0l28.2-18.27Zm2.48-6.84,29.43-18.32s0,0,0,0a3.89,3.89,0,0,0,1.17-1.08,1.75,1.75,0,0,0,.25-.78,1.78,1.78,0,0,0-.25-.79,3.64,3.64,0,0,0-1.13-1.08s0,0,0,0l-59-38.07a9.64,9.64,0,0,0-9.53,0l-59,38.07s0,0,0,0A3.64,3.64,0,0,0,4.74,45a1.78,1.78,0,0,0-.25.79,1.75,1.75,0,0,0,.25.78A3.89,3.89,0,0,0,5.91,47.6s0,0,0,0L64.79,84.23a10.27,10.27,0,0,0,9.71,0L99.71,68.55,68.41,47.67a2.24,2.24,0,0,1-.63-3.13,2.26,2.26,0,0,1,3.1-.62Z"/><path class="e9a95b2d-d58c-487a-99f7-9e11781ed4a8" d="M192.88,73.54q-4,5.74-12.64,5.75-6.33,0-9.63-3.68t-3.37-10.89V38.93h4.36V64.17q0,11.31,9.16,11.31,9.51,0,12.05-7.87V38.93h4.39V78.56H193Z"/><path class="e9a95b2d-d58c-487a-99f7-9e11781ed4a8" d="M212.76,38.93l.15,6.78a15.78,15.78,0,0,1,5.57-5.59,14.46,14.46,0,0,1,7.36-1.92q6.38,0,9.48,3.59t3.15,10.77v26h-4.36v-26q0-5.31-2.25-7.91T224.78,42a11.13,11.13,0,0,0-7.2,2.54A14.91,14.91,0,0,0,213,51.42V78.56h-4.36V38.93Z"/><path class="e9a95b2d-d58c-487a-99f7-9e11781ed4a8" d="M249.53,27.49a2.91,2.91,0,0,1,.81-2.09,2.86,2.86,0,0,1,2.19-.86,2.94,2.94,0,0,1,2.22.86,2.88,2.88,0,0,1,.82,2.09,2.82,2.82,0,0,1-.82,2.07,3,3,0,0,1-2.22.84,2.89,2.89,0,0,1-2.19-.84A2.85,2.85,0,0,1,249.53,27.49Zm5.16,51.07H250.3V38.93h4.39Z"/><path class="e9a95b2d-d58c-487a-99f7-9e11781ed4a8" d="M278.94,72.52,291,38.93h4.5L280.7,78.56h-3.56L262.28,38.93h4.5Z"/><path class="e9a95b2d-d58c-487a-99f7-9e11781ed4a8" d="M317.54,79.29a17.21,17.21,0,0,1-9.14-2.49,16.93,16.93,0,0,1-6.35-6.94,21.56,21.56,0,0,1-2.27-10V58.31A23.26,23.26,0,0,1,302,48a17.61,17.61,0,0,1,6.17-7.2,15.19,15.19,0,0,1,8.57-2.62q7.22,0,11.44,4.93c2.83,3.28,4.23,7.77,4.23,13.46V59H304.13v.84A16.61,16.61,0,0,0,308,71.11a12.27,12.27,0,0,0,9.72,4.48,14.39,14.39,0,0,0,6.21-1.28,13.8,13.8,0,0,0,4.89-4.1l2.74,2.09Q326.73,79.29,317.54,79.29Zm-.81-37.35a11,11,0,0,0-8.33,3.62,16.77,16.77,0,0,0-4.12,9.74h23.77v-.47a14.58,14.58,0,0,0-3.26-9.3A10.08,10.08,0,0,0,316.73,41.94Z"/><path class="e9a95b2d-d58c-487a-99f7-9e11781ed4a8" d="M359.25,42.67a16.5,16.5,0,0,0-3-.26,10.74,10.74,0,0,0-6.94,2.29,12.51,12.51,0,0,0-4,6.65V78.56h-4.36V38.93h4.28l.08,6.3q3.46-7,11.16-7a7.17,7.17,0,0,1,2.9.48Z"/><path class="e9a95b2d-d58c-487a-99f7-9e11781ed4a8" d="M389.9,68.49a6.23,6.23,0,0,0-2.62-5.24,20,20,0,0,0-7.89-3.09,35.69,35.69,0,0,1-8.19-2.57,10.88,10.88,0,0,1-4.32-3.53A8.83,8.83,0,0,1,365.47,49a9.43,9.43,0,0,1,3.92-7.74,15.83,15.83,0,0,1,10-3.06q6.61,0,10.64,3.28a10.51,10.51,0,0,1,4,8.55h-4.39a7.11,7.11,0,0,0-2.91-5.79,13.16,13.16,0,0,0-14.28-.38,5.92,5.92,0,0,0-2.62,5,5.36,5.36,0,0,0,2.18,4.59q2.18,1.63,7.94,3a37.53,37.53,0,0,1,8.65,2.89A11.28,11.28,0,0,1,392.9,63a10.18,10.18,0,0,1-2.65,13.26q-4,3-10.57,3-6.92,0-11.22-3.35a10.3,10.3,0,0,1-4.3-8.48h4.39a7.61,7.61,0,0,0,3.24,6,13.23,13.23,0,0,0,7.89,2.14,12.48,12.48,0,0,0,7.4-2A6,6,0,0,0,389.9,68.49Z"/><path class="e9a95b2d-d58c-487a-99f7-9e11781ed4a8" d="M403.89,27.49a3,3,0,0,1,.8-2.09,2.88,2.88,0,0,1,2.2-.86,2.94,2.94,0,0,1,2.22.86,2.88,2.88,0,0,1,.82,2.09,2.82,2.82,0,0,1-.82,2.07,3,3,0,0,1-2.22.84,2.81,2.81,0,0,1-3-2.91Zm5.16,51.07h-4.39V38.93h4.39Z"/><path class="e9a95b2d-d58c-487a-99f7-9e11781ed4a8" d="M419.2,58.38q0-9.23,4.12-14.7A13.24,13.24,0,0,1,434.5,38.2q8,0,12.24,6.34V22.31h4.35V78.56H447l-.18-5.28q-4.21,6-12.38,6a13.23,13.23,0,0,1-11-5.51q-4.2-5.52-4.19-14.89Zm4.43.77q0,7.58,3,12a9.83,9.83,0,0,0,8.57,4.37q8.08,0,11.5-7.14V49.74Q443.34,42,435.31,42a10,10,0,0,0-8.61,4.34Q423.63,50.69,423.63,59.15Z"/><path class="e9a95b2d-d58c-487a-99f7-9e11781ed4a8" d="M487.64,78.56A20.68,20.68,0,0,1,486.8,73a15.35,15.35,0,0,1-5.88,4.63,17.94,17.94,0,0,1-7.56,1.63,13.27,13.27,0,0,1-9.25-3.19,10.39,10.39,0,0,1-3.53-8,10.61,10.61,0,0,1,4.81-9.16q4.82-3.36,13.43-3.37h7.94V51a8.66,8.66,0,0,0-2.62-6.68c-1.74-1.63-4.29-2.44-7.63-2.44a12,12,0,0,0-7.58,2.34,7,7,0,0,0-3,5.64l-4.4,0q0-4.73,4.4-8.19a16.9,16.9,0,0,1,10.8-3.46q6.63,0,10.45,3.32a11.88,11.88,0,0,1,3.94,9.24V69.51c0,3.84.4,6.7,1.21,8.61v.44Zm-13.77-3.15a14.7,14.7,0,0,0,7.86-2.13,12.47,12.47,0,0,0,5-5.67V58.89h-7.83q-6.56.07-10.26,2.4a7.21,7.21,0,0,0-3.7,6.39,7.1,7.1,0,0,0,2.47,5.53A9.31,9.31,0,0,0,473.87,75.41Z"/><path class="e9a95b2d-d58c-487a-99f7-9e11781ed4a8" d="M501,58.38q0-9.23,4.13-14.7a13.24,13.24,0,0,1,11.18-5.48q8,0,12.23,6.34V22.31h4.36V78.56h-4.1l-.18-5.28q-4.21,6-12.38,6a13.21,13.21,0,0,1-11-5.51Q501,68.26,501,58.89Zm4.44.77q0,7.58,3,12a9.83,9.83,0,0,0,8.57,4.37q8.08,0,11.49-7.14V49.74Q525.17,42,517.16,42a10,10,0,0,0-8.61,4.34Q505.48,50.69,505.48,59.15Z"/><path class="e9a95b2d-d58c-487a-99f7-9e11781ed4a8" d="M559.82,79.29a17.23,17.23,0,0,1-9.14-2.49,16.93,16.93,0,0,1-6.35-6.94,21.69,21.69,0,0,1-2.27-10V58.31A23.27,23.27,0,0,1,544.28,48a17.54,17.54,0,0,1,6.17-7.2A15.17,15.17,0,0,1,559,38.2q7.22,0,11.44,4.93t4.23,13.46V59H546.42v.84a16.65,16.65,0,0,0,3.86,11.23A12.3,12.3,0,0,0,560,75.59a14.32,14.32,0,0,0,6.21-1.28,13.63,13.63,0,0,0,4.89-4.1l2.75,2.09Q569,79.29,559.82,79.29ZM559,41.94a11,11,0,0,0-8.34,3.62,16.77,16.77,0,0,0-4.11,9.74h23.76v-.47a14.52,14.52,0,0,0-3.26-9.3A10.06,10.06,0,0,0,559,41.94Z"/><path class="e9a95b2d-d58c-487a-99f7-9e11781ed4a8" d="M607,68.49a6.25,6.25,0,0,0-2.61-5.24,20.15,20.15,0,0,0-7.9-3.09,35.58,35.58,0,0,1-8.18-2.57,10.88,10.88,0,0,1-4.32-3.53A8.83,8.83,0,0,1,582.53,49a9.41,9.41,0,0,1,3.92-7.74,15.8,15.8,0,0,1,10-3.06q6.63,0,10.64,3.28a10.51,10.51,0,0,1,4,8.55h-4.4a7.11,7.11,0,0,0-2.91-5.79,13.16,13.16,0,0,0-14.28-.38,5.92,5.92,0,0,0-2.62,5,5.39,5.39,0,0,0,2.18,4.59q2.17,1.63,7.95,3a37.59,37.59,0,0,1,8.64,2.89A11.24,11.24,0,0,1,610,63a10.18,10.18,0,0,1-2.66,13.26q-4,3-10.56,3-6.93,0-11.23-3.35a10.3,10.3,0,0,1-4.3-8.48h4.39a7.61,7.61,0,0,0,3.24,6,13.24,13.24,0,0,0,7.9,2.14,12.45,12.45,0,0,0,7.39-2A6,6,0,0,0,607,68.49Z"/><path class="e9a95b2d-d58c-487a-99f7-9e11781ed4a8" d="M620.8,75.92a3.11,3.11,0,0,1,.82-2.18,3,3,0,0,1,2.29-.9,3,3,0,0,1,2.31.9,3.09,3.09,0,0,1,.84,2.18,2.82,2.82,0,0,1-.84,2.11,3.18,3.18,0,0,1-2.31.82,3.09,3.09,0,0,1-2.29-.82A2.85,2.85,0,0,1,620.8,75.92Z"/><path class="a98829ac-27c8-4641-97a8-ec91c92d3dec" d="M659.72,78.56a16.28,16.28,0,0,1-.11-2.79l.33-2.74a20.41,20.41,0,0,1-6.28,4.65A16.8,16.8,0,0,1,646,79.29a11.32,11.32,0,0,1-8.15-3.17,9.46,9.46,0,0,1-2.8-7.78,11.63,11.63,0,0,1,2.69-6.79,15.44,15.44,0,0,1,6.83-4.47,29.2,29.2,0,0,1,9.92-1.59l8.1,0,.66-4.54a8.06,8.06,0,0,0-1.76-6.52,8.72,8.72,0,0,0-6.48-2.6A12.51,12.51,0,0,0,647.51,44a9.36,9.36,0,0,0-4,5.84h-4.28a12.16,12.16,0,0,1,5.34-8.48,18,18,0,0,1,10.92-3.21q6.1.15,9.43,3.7t2.69,9.23L664.3,71,664,74.2a15.19,15.19,0,0,0,.29,3.92l-.07.44Zm-13-3.08a14.28,14.28,0,0,0,7.71-1.93,17.08,17.08,0,0,0,6.1-5.89l1.5-8.77-7,0q-6.66,0-10.87,2.36A8.44,8.44,0,0,0,639.55,68a6.33,6.33,0,0,0,1.7,5.33A7.57,7.57,0,0,0,646.76,75.48Z"/><path class="a98829ac-27c8-4641-97a8-ec91c92d3dec" d="M691,79.33a16.12,16.12,0,0,1-6.43-1.45,11.15,11.15,0,0,1-4.89-4.3l-3.66,20.21h-4.32l9.52-54.86h4l-1,5.61q5.16-6.55,12.93-6.34a10.79,10.79,0,0,1,8.68,4.14q3.11,4,3.22,11.32a34.26,34.26,0,0,1-.22,4.46l-.15,1a32.61,32.61,0,0,1-3.44,11.06,18.21,18.21,0,0,1-6.15,6.94A14.26,14.26,0,0,1,691,79.33Zm13.47-21.19.22-3.47c.07-3.9-.63-7-2.12-9.18A7.81,7.81,0,0,0,696,42a12.48,12.48,0,0,0-7,1.88,16,16,0,0,0-5.29,5.69l-3.26,19.06a10,10,0,0,0,3.72,5.12,11.17,11.17,0,0,0,6.1,1.87,11,11,0,0,0,9-4q3.68-4.16,5-11.58Z"/><path class="a98829ac-27c8-4641-97a8-ec91c92d3dec" d="M731.72,79.33a16.19,16.19,0,0,1-6.43-1.45,11.18,11.18,0,0,1-4.88-4.3l-3.67,20.21h-4.32l9.52-54.86h4l-1,5.61q5.16-6.55,12.92-6.34a10.78,10.78,0,0,1,8.68,4.14q3.12,4,3.23,11.32a34.26,34.26,0,0,1-.22,4.46l-.15,1A32.83,32.83,0,0,1,746,70.21a18.32,18.32,0,0,1-6.16,6.94A14.21,14.21,0,0,1,731.72,79.33ZM745.2,58.14l.22-3.47c.07-3.9-.64-7-2.13-9.18A7.81,7.81,0,0,0,736.67,42a12.46,12.46,0,0,0-7,1.88,15.94,15.94,0,0,0-5.29,5.69l-3.26,19.06a10,10,0,0,0,3.72,5.12,11.63,11.63,0,0,0,15.08-2.1q3.69-4.16,5-11.58Z"/></g></g></svg>